<svg width="92" height="28" viewBox="0 0 92 28" fill="none" xmlns="http://www.w3.org/2000/svg">
<path d="M3.752 27C3.056 27 2.408 26.856 1.808 26.568C1.232 26.28 0.944 25.848 0.944 25.272V3.492C0.944 2.46 1.232 1.74 1.808 1.332C2.408 0.899999 3.056 0.684 3.752 0.684C4.424 0.684 4.988 0.744 5.444 0.864C5.924 0.959998 6.368 1.212 6.776 1.62C7.184 2.004 7.628 2.628 8.108 3.492L11.816 9.972L15.524 3.492C16.028 2.628 16.472 2.004 16.856 1.62C17.264 1.212 17.696 0.959998 18.152 0.864C18.632 0.744 19.208 0.684 19.88 0.684C20.6 0.684 21.248 0.899999 21.824 1.332C22.4 1.74 22.688 2.46 22.688 3.492V25.272C22.688 25.848 22.388 26.28 21.788 26.568C21.212 26.856 20.576 27 19.88 27C19.184 27 18.536 26.856 17.936 26.568C17.36 26.28 17.072 25.848 17.072 25.272V11.772L13.616 17.676C13.376 18.06 13.088 18.336 12.752 18.504C12.416 18.648 12.08 18.72 11.744 18.72C11.432 18.72 11.108 18.648 10.772 18.504C10.46 18.36 10.196 18.084 9.98 17.676L6.56 11.412V25.272C6.56 25.848 6.26 26.28 5.66 26.568C5.084 26.856 4.448 27 3.752 27ZM34.066 27.36C32.578 27.36 31.21 27.012 29.962 26.316C28.714 25.596 27.718 24.66 26.974 23.508C26.23 22.356 25.858 21.12 25.858 19.8V11.592C25.858 11.16 26.134 10.764 26.686 10.404C27.238 10.044 27.898 9.864 28.666 9.864C29.41 9.864 30.058 10.044 30.61 10.404C31.162 10.764 31.438 11.16 31.438 11.592V19.8C31.438 20.256 31.558 20.688 31.798 21.096C32.038 21.504 32.35 21.84 32.734 22.104C33.142 22.368 33.586 22.5 34.066 22.5C34.546 22.5 34.978 22.368 35.362 22.104C35.77 21.84 36.082 21.504 36.298 21.096C36.538 20.688 36.658 20.256 36.658 19.8V11.556C36.658 11.1 36.934 10.704 37.486 10.368C38.062 10.032 38.722 9.864 39.466 9.864C40.282 9.864 40.942 10.032 41.446 10.368C41.974 10.704 42.238 11.1 42.238 11.556V19.8C42.238 21.144 41.866 22.392 41.122 23.544C40.378 24.696 39.382 25.62 38.134 26.316C36.91 27.012 35.554 27.36 34.066 27.36ZM48.0756 27C47.3076 27 46.6596 26.844 46.1316 26.532C45.6036 26.22 45.3396 25.812 45.3396 25.308V8.388C45.3396 6.588 45.8076 5.076 46.7436 3.852C47.7036 2.604 48.9516 1.668 50.4876 1.044C52.0476 0.395999 53.7276 0.0719991 55.5276 0.0719991C56.4396 0.0719991 57.3996 0.155999 58.4076 0.323998C59.4396 0.467999 60.3996 0.707999 61.2876 1.044C62.1996 1.356 62.9076 1.764 63.4116 2.268V25.272C63.4116 25.704 63.1356 26.1 62.5836 26.46C62.0316 26.82 61.3596 27 60.5676 27C59.7756 27 59.1156 26.82 58.5876 26.46C58.0836 26.1 57.8316 25.704 57.8316 25.272V5.22C57.5916 5.076 57.2196 4.956 56.7156 4.86C56.2356 4.764 55.7556 4.716 55.2756 4.716C54.5556 4.716 53.8596 4.836 53.1876 5.076C52.5396 5.316 51.9996 5.688 51.5676 6.192C51.1356 6.696 50.9196 7.344 50.9196 8.136V9.864H54.2316C54.6876 9.864 55.0236 10.08 55.2396 10.512C55.4796 10.92 55.5996 11.364 55.5996 11.844C55.5996 12.348 55.4796 12.804 55.2396 13.212C55.0236 13.62 54.6876 13.824 54.2316 13.824H50.9196V25.308C50.9196 25.812 50.6316 26.22 50.0556 26.532C49.5036 26.844 48.8436 27 48.0756 27ZM69.7318 6.552C68.9158 6.552 68.2198 6.288 67.6438 5.76C67.0678 5.232 66.7798 4.632 66.7798 3.96C66.7798 3.264 67.0678 2.664 67.6438 2.16C68.2198 1.656 68.9158 1.404 69.7318 1.404C70.5478 1.404 71.2318 1.656 71.7838 2.16C72.3598 2.664 72.6478 3.264 72.6478 3.96C72.6478 4.632 72.3598 5.232 71.7838 5.76C71.2318 6.288 70.5478 6.552 69.7318 6.552ZM69.7318 27C68.9158 27 68.2438 26.82 67.7158 26.46C67.2118 26.1 66.9598 25.704 66.9598 25.272V11.556C66.9598 11.052 67.2118 10.644 67.7158 10.332C68.2438 10.02 68.9158 9.864 69.7318 9.864C70.4998 9.864 71.1598 10.02 71.7118 10.332C72.2638 10.644 72.5398 11.052 72.5398 11.556V25.272C72.5398 25.704 72.2638 26.1 71.7118 26.46C71.1598 26.82 70.4998 27 69.7318 27ZM78.3769 27.36C77.9929 27.36 77.5129 27.228 76.9369 26.964C76.3849 26.676 75.8809 26.316 75.4249 25.884C74.9929 25.452 74.7769 25.02 74.7769 24.588C74.7769 24.276 74.8849 23.964 75.1009 23.652L79.1689 18.252L75.4969 13.356C75.4249 13.26 75.3409 13.128 75.2449 12.96C75.1729 12.792 75.1369 12.624 75.1369 12.456C75.1369 12.024 75.3529 11.592 75.7849 11.16C76.2169 10.728 76.7209 10.368 77.2969 10.08C77.8969 9.792 78.4369 9.648 78.9169 9.648C79.0369 9.648 79.2169 9.684 79.4569 9.756C79.7209 9.804 79.9369 9.96 80.1049 10.224L82.9849 14.94L85.9009 10.26C86.0449 10.02 86.2369 9.864 86.4769 9.792C86.7409 9.696 86.9689 9.648 87.1609 9.648C87.5929 9.648 88.0969 9.792 88.6729 10.08C89.2729 10.368 89.7889 10.728 90.2209 11.16C90.6529 11.592 90.8689 12.024 90.8689 12.456C90.8689 12.72 90.7489 13.02 90.5089 13.356L86.8009 18.288L90.9049 23.652C90.9769 23.748 91.0489 23.88 91.1209 24.048C91.1929 24.216 91.2289 24.396 91.2289 24.588C91.2289 24.972 91.0249 25.38 90.6169 25.812C90.2089 26.244 89.7169 26.616 89.1409 26.928C88.5889 27.216 88.0609 27.36 87.5569 27.36C87.3409 27.36 87.1129 27.312 86.8729 27.216C86.6329 27.144 86.4409 27 86.2969 26.784L82.9849 21.816L79.7089 26.784C79.5649 26.976 79.3489 27.12 79.0609 27.216C78.7969 27.312 78.5689 27.36 78.3769 27.36Z" fill="#A6C301"/>
</svg>
